<?xml version="1.0" standalone="no"?>
<!DOCTYPE svg PUBLIC "-//W3C//DTD SVG 20010904//EN"
 "http://www.w3.org/TR/2001/REC-SVG-20010904/DTD/svg10.dtd">
<svg version="1.0" xmlns="http://www.w3.org/2000/svg"
 width="1280.000000pt" height="1147.000000pt" viewBox="0 0 1280.000000 1147.000000"
 preserveAspectRatio="xMidYMid meet">

<g transform="translate(0.000000,1147.000000) scale(0.100000,-0.100000)"
fill="#000000" stroke="none">
<path d="M6370 10933 c-374 -26 -666 -69 -965 -144 -728 -182 -1358 -506
-1970 -1015 -160 -132 -546 -518 -678 -676 -687 -821 -1059 -1720 -1152 -2783
-21 -240 -21 -710 0 -950 98 -1114 508 -2064 1252 -2897 137 -153 421 -430
569 -554 860 -719 1800 -1094 2929 -1165 337 -21 792 -2 1130 47 1068 154
2005 634 2810 1439 275 276 469 509 670 810 469 702 725 1437 807 2320 8 82
13 278 13 475 0 354 -9 496 -51 790 -132 930 -514 1763 -1149 2506 -140 165
-434 459 -599 599 -853 729 -1812 1119 -2934 1195 -138 9 -568 11 -682 3z
m615 -103 c1295 -76 2363 -564 3277 -1499 555 -567 932 -1168 1166 -1862 177
-522 255 -1023 255 -1629 0 -394 -27 -693 -94 -1025 -164 -816 -501 -1510
-1056 -2173 -125 -151 -494 -520 -645 -645 -802 -671 -1672 -1036 -2698 -1131
-546 -51 -1153 -14 -1655 100 -901 205 -1690 649 -2380 1339 -723 723 -1174
1546 -1364 2486 -64 317 -91 568 -98 934 -6 312 4 532 38 795 139 1099 609
2041 1424 2855 545 544 1135 927 1804 1170 616 225 1334 325 2026 285z"/>
<path d="M4905 8409 c-197 -24 -420 -89 -610 -179 -656 -308 -1036 -959 -1001
-1715 13 -278 60 -517 142 -723 221 -556 561 -1047 1094 -1583 427 -429 916
-839 1780 -1491 353 -266 333 -253 362 -237 26 14 420 309 678 508 1180 909
1830 1557 2233 2226 172 286 327 641 370 851 45 216 52 288 52 539 0 207 -4
256 -23 359 -83 434 -302 801 -635 1059 -213 166 -478 288 -758 351 -692 154
-1280 -98 -1846 -791 l-92 -113 -61 78 c-390 489 -796 769 -1225 847 -111 20
-353 27 -460 14z m464 -1449 c17 -113 62 -419 101 -680 39 -261 91 -612 115
-779 46 -308 55 -341 93 -341 9 0 23 7 31 14 9 8 90 204 181 435 91 231 167
421 170 421 3 0 10 -12 16 -27 6 -16 77 -173 159 -351 92 -200 155 -327 167
-333 39 -21 62 11 131 183 l65 163 1551 3 c853 1 1551 -1 1551 -4 0 -3 -21
-51 -47 -105 l-46 -99 -1404 0 c-958 0 -1411 -3 -1424 -10 -11 -7 -87 -145
-184 -341 -91 -181 -169 -328 -173 -325 -4 2 -77 144 -162 315 -97 195 -161
313 -172 317 -10 3 -27 3 -38 -1 -21 -7 -14 13 -301 -877 -74 -230 -136 -418
-139 -418 -3 0 -27 138 -53 308 -251 1605 -285 1814 -295 1824 -13 13 -60 14
-72 2 -5 -5 -62 -186 -127 -401 l-118 -393 -623 0 -623 0 -49 103 -49 102 588
5 c433 4 592 8 602 17 8 6 134 343 279 747 146 404 266 734 267 733 1 -2 16
-95 32 -207z"/>
</g>
</svg>
