<?xml version="1.0" standalone="no"?>
<!DOCTYPE svg PUBLIC "-//W3C//DTD SVG 20010904//EN"
 "http://www.w3.org/TR/2001/REC-SVG-20010904/DTD/svg10.dtd">
<svg version="1.0" xmlns="http://www.w3.org/2000/svg"
 width="980.000000pt" height="980.000000pt" viewBox="0 0 980.000000 980.000000"
 preserveAspectRatio="xMidYMid meet">

<g transform="translate(0.000000,980.000000) scale(0.100000,-0.100000)"
fill="#000000" stroke="none">
<path d="M4495 8010 c-421 -42 -816 -155 -1193 -340 -352 -172 -638 -376 -906
-644 -531 -532 -842 -1164 -948 -1926 -20 -147 -17 -673 5 -820 71 -468 208
-858 438 -1245 321 -540 837 -1009 1414 -1290 349 -169 683 -268 1105 -327
129 -18 700 -18 830 0 266 37 470 84 702 162 1261 426 2154 1543 2269 2839 15
171 7 578 -15 721 -110 743 -423 1369 -940 1885 -535 532 -1212 864 -1981 971
-140 19 -636 28 -780 14z m777 -94 c769 -110 1421 -435 1945 -967 145 -147
235 -255 341 -404 295 -418 472 -861 555 -1385 19 -117 21 -177 21 -455 0
-299 -2 -331 -26 -481 -113 -682 -416 -1277 -900 -1764 -552 -557 -1286 -899
-2081 -971 -187 -17 -615 -6 -782 19 -647 101 -1175 335 -1656 735 -475 396
-842 950 -1022 1547 -187 619 -180 1280 20 1905 201 628 606 1189 1155 1602
476 359 1064 579 1698 637 107 9 629 -3 732 -18z"/>
<path d="M4863 7120 c-337 -5 -353 -6 -380 -26 -15 -11 -38 -36 -51 -55 -35
-50 -27 -125 28 -264 50 -129 102 -329 124 -477 20 -134 21 -408 2 -499 -20
-94 -68 -182 -134 -248 -55 -54 -342 -285 -346 -279 -2 2 -18 41 -36 88 -49
125 -111 245 -197 382 -144 230 -189 401 -147 561 18 71 43 122 79 166 15 17
24 31 20 31 -28 0 -260 -154 -400 -266 -110 -87 -323 -298 -410 -404 -383
-470 -602 -1005 -687 -1680 -9 -70 -13 -222 -13 -455 1 -303 4 -372 23 -513
36 -265 54 -372 63 -372 5 0 9 9 9 19 0 30 84 136 147 186 93 74 343 184 474
209 13 2 71 13 129 24 58 11 166 28 240 37 260 31 416 80 568 178 202 131 329
353 348 612 10 132 -34 485 -96 767 -16 73 -26 136 -22 139 4 4 147 60 317
124 l310 117 90 -5 c85 -4 105 -10 385 -117 162 -62 298 -115 302 -119 4 -3
-2 -44 -12 -91 -46 -199 -93 -508 -106 -680 -22 -316 113 -601 358 -753 152
-95 309 -142 588 -177 463 -58 774 -182 912 -365 21 -27 40 -62 44 -77 3 -16
9 -28 13 -28 9 0 40 188 68 405 25 196 25 790 0 975 -55 404 -140 700 -297
1034 -229 490 -646 953 -1101 1225 -47 28 -89 51 -92 51 -4 0 8 -20 27 -45 79
-103 104 -250 68 -393 -28 -111 -62 -185 -149 -324 -84 -136 -146 -258 -193
-378 -19 -47 -35 -87 -37 -89 -1 -2 -29 18 -60 45 -32 28 -109 90 -171 138
-150 118 -197 178 -239 305 -24 74 -29 388 -9 530 23 155 75 354 126 486 50
126 61 205 36 253 -21 42 -73 79 -121 89 -22 4 -198 6 -392 3z m-297 -440 c32
-38 132 -85 208 -99 177 -32 388 14 461 101 31 36 40 32 31 -15 -18 -95 -190
-177 -371 -177 -127 0 -292 60 -336 122 -20 28 -38 98 -25 98 4 0 19 -13 32
-30z m94 -455 c13 -14 48 -34 79 -46 138 -51 325 -28 409 51 32 30 38 18 15
-27 -56 -108 -310 -145 -455 -66 -49 27 -70 51 -80 91 -8 29 3 28 32 -3z m68
-462 c126 -58 345 -33 421 48 26 28 34 10 13 -32 -25 -50 -124 -97 -222 -105
-129 -11 -268 38 -302 105 -21 43 -13 60 15 30 11 -12 45 -33 75 -46z m-68
-244 c47 -38 110 -154 110 -204 0 -18 -8 -42 -17 -54 -18 -22 -18 -21 -19 31
-2 95 -92 227 -165 243 -44 10 -36 29 10 22 24 -3 56 -18 81 -38z m600 32 c0
-5 -13 -11 -29 -14 -71 -14 -163 -151 -165 -245 l-1 -53 -19 23 c-44 54 28
218 123 280 27 17 91 24 91 9z m-1812 -330 c84 -85 145 -114 258 -119 107 -5
168 10 290 70 77 38 207 126 231 158 6 8 13 13 16 10 2 -3 -13 -79 -35 -170
-25 -109 -44 -168 -55 -175 -155 -96 -203 -181 -208 -365 -3 -93 14 -235 35
-294 17 -49 3 -41 -24 13 -15 28 -29 51 -31 51 -3 0 -3 -24 0 -52 3 -29 7 -78
10 -108 2 -30 7 -73 11 -95 8 -53 -9 -36 -29 30 -30 93 -56 274 -73 499 -6 81
-8 88 -21 70 -31 -41 -212 -416 -237 -490 -46 -139 -31 -352 43 -629 17 -60
28 -111 27 -113 -15 -14 -156 229 -156 269 0 54 -29 21 -190 -211 -39 -58 -79
-112 -87 -120 -8 -8 21 57 65 145 44 88 79 161 77 163 -2 2 -14 -4 -27 -12
-26 -17 -169 -68 -175 -62 -2 1 23 19 54 39 66 41 163 124 193 167 18 25 22
48 25 157 5 146 34 329 71 452 14 45 23 85 21 88 -6 6 -57 -44 -94 -92 -63
-83 -143 -234 -176 -332 -18 -56 -49 -127 -68 -159 -43 -73 -147 -181 -220
-227 -58 -37 -178 -91 -186 -84 -2 3 15 16 39 31 51 30 150 123 199 186 51 65
103 143 93 139 -5 -2 -38 -18 -74 -36 -119 -58 -134 -53 -45 14 133 101 213
197 235 283 17 63 69 165 140 271 l61 91 -99 -4 c-86 -3 -107 -8 -164 -36 -83
-41 -168 -130 -215 -227 -43 -86 -34 -39 12 69 19 44 33 82 30 84 -8 8 -103
-29 -147 -57 -25 -16 -78 -59 -117 -96 -39 -37 -71 -64 -71 -61 0 23 46 90 96
139 70 69 168 138 292 205 l94 50 -50 16 c-27 9 -67 32 -88 50 l-39 34 70 -19
c88 -23 263 -25 372 -4 67 13 196 52 265 80 13 5 -12 24 -100 77 -193 117
-254 159 -318 223 -60 59 -113 147 -128 210 -6 26 -3 24 25 -18 44 -66 209
-208 209 -179 0 4 -4 12 -10 18 -14 14 -50 160 -50 203 0 33 4 28 45 -57 32
-64 63 -110 103 -151z m3042 131 c-6 -36 -20 -83 -31 -104 -36 -70 -18 -62
102 43 32 28 72 72 89 97 28 42 31 44 25 17 -14 -60 -61 -138 -120 -199 -64
-67 -153 -131 -333 -237 l-112 -67 87 -32 c150 -54 268 -73 418 -67 82 3 147
11 175 21 l45 16 -39 -35 c-21 -19 -61 -42 -88 -51 l-50 -16 94 -50 c175 -95
301 -194 359 -286 16 -25 29 -50 29 -56 0 -5 -30 20 -67 55 -38 36 -91 79
-119 97 -50 32 -141 68 -149 60 -3 -2 11 -40 29 -84 49 -114 53 -140 9 -60
-97 180 -246 270 -425 258 l-47 -3 59 -87 c67 -100 123 -207 140 -272 22 -86
102 -182 235 -283 89 -67 74 -72 -45 -14 -36 18 -69 34 -74 36 -5 2 15 -31 44
-73 62 -90 187 -217 248 -253 57 -34 47 -40 -20 -12 -98 42 -172 92 -243 164
-86 87 -129 158 -171 285 -49 146 -207 403 -259 424 -19 7 -19 8 10 -88 35
-116 65 -307 71 -453 4 -105 8 -130 25 -154 29 -42 126 -126 192 -166 31 -20
56 -38 54 -40 -5 -4 -141 44 -180 64 -26 13 -22 3 53 -146 44 -89 80 -164 80
-167 0 -4 -50 64 -110 151 -61 86 -122 173 -137 191 -26 34 -43 37 -43 5 0
-40 -128 -261 -151 -261 -3 0 9 57 27 128 46 182 64 300 64 421 0 140 -21 202
-164 486 l-111 220 -12 -140 c-19 -232 -32 -317 -63 -434 -24 -87 -47 -122
-36 -55 4 22 9 64 11 94 3 30 7 80 10 110 l5 55 -25 -40 c-37 -61 -47 -74 -40
-50 25 77 46 238 42 320 -10 186 -58 267 -211 360 -11 7 -29 64 -54 175 -22
91 -38 167 -36 169 1 1 13 -7 26 -19 86 -81 260 -178 371 -207 93 -24 217 -14
287 22 83 42 162 129 212 234 47 97 57 92 38 -17z m-2118 49 c20 -2 92 -80
114 -123 23 -45 31 -108 18 -142 -11 -29 -19 -16 -20 32 -2 84 -83 201 -151
218 -29 8 -21 22 9 18 13 -1 26 -3 30 -3z m1113 0 c6 -1 -9 -10 -32 -22 -76
-37 -136 -130 -137 -211 -1 -49 -9 -61 -20 -32 -9 23 -7 74 4 115 18 64 118
162 158 154 10 -2 22 -4 27 -4z"/>
<path d="M3846 6439 c-82 -97 -105 -231 -67 -381 26 -101 64 -182 148 -313 73
-114 137 -235 168 -317 10 -27 21 -48 25 -48 18 0 35 187 35 385 0 223 -11
296 -67 430 -44 104 -173 275 -209 275 -4 0 -19 -14 -33 -31z"/>
<path d="M5861 6422 c-84 -84 -147 -199 -187 -344 -36 -128 -44 -372 -19 -568
9 -74 19 -137 21 -139 2 -2 11 13 20 35 44 109 108 231 174 334 155 244 199
413 150 574 -20 63 -72 145 -97 153 -7 3 -35 -18 -62 -45z"/>
<path d="M4227 3651 c-30 -50 -149 -172 -210 -213 -145 -99 -332 -165 -547
-193 -419 -56 -629 -111 -802 -212 -111 -65 -218 -185 -218 -246 0 -18 98 -53
235 -83 118 -26 391 -28 510 -5 299 60 552 196 754 404 90 94 136 161 201 292
51 105 109 269 98 281 -2 2 -11 -9 -21 -25z"/>
<path d="M5555 3648 c28 -136 132 -350 222 -460 165 -202 389 -357 633 -437
164 -55 238 -66 435 -66 192 0 267 11 426 61 85 27 89 32 65 87 -44 105 -186
209 -386 284 -67 25 -314 88 -385 97 -22 3 -96 12 -165 21 -288 36 -449 89
-620 205 -62 42 -181 164 -205 210 -20 39 -28 38 -20 -2z"/>
</g>
</svg>
